<?xml version="1.0" encoding="UTF-8" standalone="no"?>
<!-- Created with Inkscape (http://www.inkscape.org/) -->

<svg
   width="512"
   height="512"
   viewBox="0 0 512 512"
   version="1.1"
   id="svg1"
   xml:space="preserve"
   inkscape:version="1.4.3 (0d15f75042, 2025-12-25)"
   sodipodi:docname="Quester.svg"
   xmlns:inkscape="http://www.inkscape.org/namespaces/inkscape"
   xmlns:sodipodi="http://sodipodi.sourceforge.net/DTD/sodipodi-0.dtd"
   xmlns="http://www.w3.org/2000/svg"
   xmlns:svg="http://www.w3.org/2000/svg"><sodipodi:namedview
     id="namedview1"
     pagecolor="#505050"
     bordercolor="#eeeeee"
     borderopacity="1"
     inkscape:showpageshadow="0"
     inkscape:pageopacity="0"
     inkscape:pagecheckerboard="0"
     inkscape:deskcolor="#505050"
     inkscape:document-units="px"
     inkscape:zoom="3.1008966"
     inkscape:cx="208.64933"
     inkscape:cy="322.32613"
     inkscape:window-width="1920"
     inkscape:window-height="1030"
     inkscape:window-x="0"
     inkscape:window-y="0"
     inkscape:window-maximized="1"
     inkscape:current-layer="g1" /><defs
     id="defs1" /><g
     inkscape:label="Layer 1"
     inkscape:groupmode="layer"
     id="layer1"><g
       style="fill:#000000"
       id="g1"
       transform="matrix(0.88217133,0,0,-0.88207403,-0.01411474,255.99994)"><g
         id="g3"
         transform="matrix(1.151993,0,0,1.151993,246.08328,-291.03158)">
	<path
   d="m 44.120801,262.36358 c -16.075109,-11.85111 0.127054,0.0116 -16.023509,-11.93202 0,0 14.262159,-24.85259 29.450708,-52.08156 L 34.185,175.006 H 11.504 c -4.362,0 -7.898,-3.539 -7.898,-7.902 0,-4.361 3.536,-7.9 7.898,-7.9 h 25.947 c 2.1,0 4.107,0.832 5.588,2.312 l 85.379,85.291 c 1.483,1.483 2.315,3.495 2.315,5.589 v 26.073 c 0,4.365 -3.537,7.897 -7.9,7.897 -4.367,0 -7.904,-3.531 -7.904,-7.897 v -22.798 l -23.27,-23.24 c -19.501133,13.44923 -47.538199,29.93258 -47.538199,29.93258 z"
   id="path1"
   sodipodi:nodetypes="ccccssssccssssccc" />
	<path
   d="m 26.61,237.102 c -7.106,0 -13.784,2.764 -18.812,7.784 -5.019,5.015 -7.782,11.686 -7.782,18.778 0,7.097 2.764,13.762 7.782,18.776 5.027,5.016 11.706,7.783 18.812,7.785 7.102,0 13.781,-2.77 18.804,-7.785 5.023,-5.015 7.79,-11.682 7.79,-18.776 0,-7.093 -2.768,-13.764 -7.79,-18.778 -5.022,-5.02 -11.702,-7.784 -18.804,-7.784 z"
   id="path2"
   style="fill:#717171;fill-opacity:1" />
	<path
   id="path3"
   style="stroke:none;stroke-opacity:1;fill:#581616;fill-opacity:1"
   d="m 122.87639,213.17434 c -2.308,0 -4.61621,-0.87466 -6.36721,-2.62366 l -8.82145,-8.81281 c -3.502,-3.498 -3.502,-9.22336 0,-12.72236 l 54.47197,-54.42032 c 0.0149,0.0546 0.0299,0.10867 0.0442,0.16338 0.12679,0.56607 0.37636,1.08994 0.56887,1.63378 0.12545,0.32582 0.23896,0.65587 0.33441,0.99181 0.0898,0.36072 0.18228,0.72242 0.26907,1.08406 0.11284,0.5293 0.25756,1.04979 0.41128,1.56843 0.13349,0.42342 0.28405,0.84074 0.43242,1.25897 0.15248,0.39512 0.28764,0.79728 0.44204,1.1917 0.16717,0.45901 0.32721,0.92022 0.492,1.38007 0.23861,0.67751 0.51652,1.33916 0.8168,1.99129 0.30868,0.69578 0.62876,1.38419 0.97055,2.06433 0.48602,0.9273 1.03759,1.81881 1.55673,2.72746 0.5655,1.04198 1.17762,2.05708 1.78735,3.07343 0.55007,0.87935 1.07973,1.76918 1.56634,2.68517 0.35531,0.61009 0.64306,1.25491 0.93788,1.89518 0.18896,0.42412 0.39533,0.84249 0.53044,1.28781 0.14715,0.46273 0.32522,0.91308 0.48815,1.37045 0.1353,0.38618 0.25352,0.7787 0.35747,1.1744 0.16788,0.5914 0.31354,1.18755 0.49201,1.77602 0.0974,0.32191 0.202,0.6415 0.31134,0.95913 l -45.72547,45.67862 c -1.751,1.749 -4.0592,2.62366 -6.3672,2.62366 z M 94.61892,184.94259 c -2.308,1.2e-4 -4.616203,-0.87466 -6.367203,-2.62366 l -8.809918,-8.80128 c -3.502,-3.498 -3.502,-9.22244 0,-12.72044 L 229.83117,10.564237 c 3.502,-3.4980015 10.40188,-6.7271863 15.33088,-7.1751863 l 36.86174,-3.35213611 c 4.93,-0.448 8.59679,3.21776661 8.14879,8.14776661 l -3.346,36.7908468 c -0.448,4.93 -3.68008,11.825875 -7.18208,15.324875 l -98.22752,98.128787 c -0.0136,-0.0578 -0.0327,-0.12206 -0.0557,-0.19221 -0.0483,-0.14704 -0.10497,-0.26801 -0.1403,-0.35943 -0.0512,-0.12107 -0.0994,-0.22097 -0.14222,-0.32291 -0.0418,-0.0904 -0.0832,-0.18162 -0.123,-0.27294 -0.058,-0.13064 -0.0976,-0.21135 -0.16528,-0.34406 -0.0647,-0.12618 -0.12962,-0.25357 -0.19988,-0.37673 -0.0727,-0.11628 -0.14321,-0.23228 -0.20756,-0.35366 -0.068,-0.11481 -0.13656,-0.22964 -0.2018,-0.34598 -0.0749,-0.12853 -0.1551,-0.2536 -0.23255,-0.38058 -0.0852,-0.12832 -0.17298,-0.25358 -0.2729,-0.37096 -0.0664,-0.0821 -0.0751,-0.0851 -0.14222,-0.18644 -0.0696,-0.10267 -0.13546,-0.20818 -0.2191,-0.30177 -0.12775,-0.15121 -0.19322,-0.21085 -0.31903,-0.33445 -0.0821,-0.0769 -0.16507,-0.15359 -0.24792,-0.23065 -0.12216,-0.096 -0.22,-0.22325 -0.34786,-0.3133 -0.133,-0.10156 -0.25012,-0.22205 -0.38054,-0.32676 -0.13661,-0.11673 -0.26108,-0.24625 -0.39206,-0.36904 -0.0625,-0.0632 -0.12433,-0.12671 -0.18642,-0.19029 -0.0578,-0.0751 -0.13008,-0.16644 -0.18066,-0.23257 -0.0858,-0.12234 -0.1713,-0.24551 -0.2633,-0.36328 -0.0791,-0.10633 -0.14618,-0.22004 -0.21909,-0.3306 -0.0769,-0.11171 -0.14746,-0.22897 -0.2191,-0.34405 -0.0881,-0.13681 -0.16675,-0.27841 -0.25177,-0.4171 -0.0948,-0.16258 -0.19169,-0.32525 -0.28251,-0.49013 -0.10609,-0.19455 -0.21829,-0.38407 -0.33441,-0.57279 -0.12094,-0.21517 -0.24769,-0.42814 -0.38053,-0.63621 -0.10836,-0.17513 -0.22667,-0.34488 -0.33057,-0.52281 -0.0872,-0.1555 -0.17568,-0.30943 -0.26906,-0.4613 -0.0753,-0.11358 -0.14181,-0.23301 -0.22102,-0.34406 -0.0862,-0.13482 -0.16984,-0.27077 -0.24984,-0.40941 -0.0875,-0.12969 -0.16184,-0.26848 -0.25561,-0.39403 -0.0981,-0.14142 -0.20152,-0.27776 -0.29982,-0.41901 -0.0699,-0.0892 -0.12813,-0.18605 -0.19603,-0.27679 0.001,0.002 0.001,0.004 0.002,0.006 -0.007,-0.0103 -0.0257,-0.0382 -0.0596,-0.0865 -0.0198,-0.0282 -0.0365,-0.0573 -0.0596,-0.0827 h -0.002 v -0.002 l -0.002,-0.002 c -0.0746,-0.1208 -0.0974,-0.14901 -0.15567,-0.24795 -0.0333,-0.0563 -0.0599,-0.10227 -0.10955,-0.19605 -0.0547,-0.11127 -0.11541,-0.21921 -0.17681,-0.32676 -0.0455,-0.0953 -0.0923,-0.19054 -0.13646,-0.28639 -0.0266,-0.0625 -0.0547,-0.12538 -0.075,-0.18452 -0.0233,-0.0821 -0.04,-0.17469 -0.0711,-0.25372 l -0.002,-0.002 c -0.004,-0.0178 -0.007,-0.0361 -0.0115,-0.0538 -0.004,-0.0189 -0.0105,-0.037 -0.0154,-0.0557 -3.7e-4,-0.001 -0.001,-0.007 -0.002,-0.01 -0.004,-0.0285 -0.01,-0.0592 -0.0134,-0.0827 -0.0223,-0.12919 -0.049,-0.24907 -0.0673,-0.37865 -0.0366,-0.17311 -0.0843,-0.34232 -0.13645,-0.51128 -0.0645,-0.19808 -0.13655,-0.39461 -0.22294,-0.58432 -0.0679,-0.15672 -0.13388,-0.31485 -0.2191,-0.46322 -0.0925,-0.16866 -0.19253,-0.33129 -0.30942,-0.48437 -0.1297,-0.17664 -0.26574,-0.35061 -0.41705,-0.50936 -0.15011,-0.15949 -0.29872,-0.32062 -0.44203,-0.48629 -0.15554,-0.17972 -0.31391,-0.35781 -0.45933,-0.54587 -0.12715,-0.16168 -0.26069,-0.31818 -0.39399,-0.47476 -0.0948,-0.11521 -0.19267,-0.22773 -0.27867,-0.34982 -0.0893,-0.12651 -0.17946,-0.25223 -0.2633,-0.3825 -0.11032,-0.16093 -0.21708,-0.32335 -0.31519,-0.49206 -0.0514,-0.0784 -0.10755,-0.16655 -0.15183,-0.24026 -0.005,-0.006 -0.009,-0.0106 -0.0115,-0.0135 v -0.002 -0.002 c -0.003,-0.007 -0.004,-0.0185 -0.0288,-0.075 -0.0441,-0.10221 -0.0876,-0.20659 -0.13453,-0.30753 -0.0182,-0.0376 -0.036,-0.0758 -0.0538,-0.11341 -0.10598,-0.36548 -0.20474,-0.73249 -0.28252,-1.1052 -0.10664,-0.44185 -0.21968,-0.8802 -0.33248,-1.32048 -0.12954,-0.43836 -0.26968,-0.87476 -0.43435,-1.30126 -0.14622,-0.40076 -0.32941,-0.78228 -0.43242,-1.19555 -0.0633,-0.2388 -0.0815,-0.30747 -0.0846,-0.31907 0.004,0.016 0.0308,0.12217 -0.0557,-0.19221 -0.0308,-0.11186 -0.0655,-0.34174 -0.12877,-0.45938 h -0.002 v 0.002 c 6e-5,0.004 2.4e-4,0.011 0,0.0135 -0.0224,0.24811 -0.0568,0.4611 -0.10186,0.6439 -0.0421,-0.0832 -0.0836,-0.16222 -0.12877,-0.25564 -0.0626,-0.11386 -0.12575,-0.22641 -0.1845,-0.34213 -0.077,-0.14244 -0.15249,-0.28681 -0.23062,-0.42863 -0.0959,-0.17235 -0.19091,-0.34432 -0.29597,-0.51127 -0.10952,-0.16657 -0.21578,-0.33601 -0.32672,-0.50167 l 67.93669,-67.874991 c 1.854,-1.848 1.85652,-4.850428 0.004,-6.700428 -1.848,-1.853 -4.8533,-1.854932 -6.7093,-0.0038 L 100.9842,182.31893 c -1.750997,1.7495 -4.05728,2.62353 -6.36528,2.62366 z m 84.52063,-24.23764 c -0.13558,-0.49763 -0.28042,-0.99407 -0.45356,-1.48001 -0.14365,-0.40315 -0.30199,-0.80026 -0.43435,-1.20708 -0.2096,-0.64433 -0.47035,-1.26888 -0.75914,-1.88173 -0.065,-0.1409 -0.12898,-0.28206 -0.19411,-0.42286 0.0811,0.0739 0.15222,0.14098 0.22678,0.20951 0.007,0.008 0.0461,0.0513 0.075,0.0807 l 0.002,0.002 c 0.0133,0.0165 0.025,0.0305 0.0346,0.0423 0.0237,0.0366 0.0505,0.0714 0.075,0.10764 0.0758,0.11557 0.16241,0.22218 0.24792,0.3306 0.059,0.0654 0.10726,0.13659 0.15568,0.20951 0.0482,0.0891 0.10947,0.17214 0.15759,0.2614 0.0709,0.12436 0.14426,0.24774 0.21717,0.37097 0.0704,0.13399 0.14882,0.26369 0.22871,0.39211 l 0.002,0.002 v 0.002 l 0.002,0.002 0.002,0.002 v 0.002 h 0.002 l 0.002,0.002 v 0.002 h -0.002 c 0.0327,0.0658 0.0683,0.13175 0.0999,0.19798 0.0385,0.0697 0.0817,0.16086 0.10763,0.21912 0.0399,0.0926 0.0833,0.18342 0.12492,0.27486 -0.0231,0.29897 0.0413,0.65124 0.23063,1.03985 0.0572,0.11735 0.0994,0.1886 0.14991,0.31138 0.0148,0.0309 0.0412,0.094 0.048,0.10571 0.0128,0.075 0.0268,0.14927 0.0346,0.22489 0.001,0.009 -6e-4,0.0284 0,0.0384 v 0.002 0.002 l 0.002,0.002 h 0.002 l 0.002,-0.002 v -0.002 -0.002 h 0.002 l 0.002,-0.002 v -0.002 c 1.1e-4,-9.7e-4 -3e-5,-0.005 0,-0.006 -4.6e-4,-0.0103 -0.004,-0.0245 -0.004,-0.0346 0.003,-0.77263 0.28744,-0.72286 0.65152,-0.43439 z m -14.6832,-27.38026 c -0.19128,-0.14319 -0.38395,-0.29774 -0.57272,-0.45169 l 0.19604,-0.19606 c 0.0259,0.04 0.0527,0.0793 0.0788,0.11917 0.0723,0.12216 0.14312,0.24454 0.21141,0.36904 0.0288,0.0526 0.0581,0.10636 0.0865,0.15954 z" />
</g><ellipse
         style="fill:none;fill-opacity:0;stroke:#852121;stroke-width:39.1781;stroke-dasharray:none;stroke-opacity:1"
         id="path4"
         cx="242.31851"
         cy="-20.409428"
         transform="scale(1,-1)"
         rx="222.71352"
         ry="250.22656" /><path
         id="path3-3"
         style="fill:#b42d2d;fill-opacity:1"
         transform="matrix(1.151993,0,0,1.151993,246.08328,-291.03158)"
         d="m 88.251717,182.31893 -8.809918,-8.80128 c -3.502,-3.498 -3.502,-9.22244 0,-12.72044 L 229.8331,10.564237 c 3.502,-3.4980132 10.39995,-6.7271863 15.32895,-7.1751863 l 36.86174,-3.35213611 c 4.93,-0.44800005 8.59679,3.21776661 8.14879,8.14776661 l -3.346,36.7908468 c -0.448,4.93 -3.68008,11.825875 -7.18208,15.324875 l -98.22752,98.128787 c -0.0215,-0.0914 -15.40676,-27.16869 -15.61247,-27.47588 l 67.8032,-67.741491 c 1.854,-1.848 1.85284,-4.85235 0.004,-6.70235 -1.848,-1.853 -4.8533,-1.853472 -6.7093,-0.0019 L 100.98612,182.317 c -3.499041,3.49618 -9.234957,3.49696 -12.734403,0.002 z"
         sodipodi:nodetypes="cccccccccccccccc" /></g></g></svg>
